PathFileType	4	(X/Y/Z)	30_2_26_p1_0-498_filt_butterworth.trc
DataRate	CameraRate	NumFrames	NumMarkers	Units	OrigDataRate	OrigDataStartFrame	OrigNumFrames
59.0	59.0	6	27	m	59.0	373	498
Frame#	Time	RHip			RKnee			RAnkle			RBigToe			RSmallToe			RHeel			LHip			LKnee			LAnkle			LBigToe			LSmallToe			LHeel			Neck			Head			Nose			RShoulder			RElbow			RWrist			RThumb			RIndex			RPinky			LShoulder			LElbow			LWrist			LThumb			LIndex			LPinky			
		X1	Y1	Z1	X2	Y2	Z2	X3	Y3	Z3	X4	Y4	Z4	X5	Y5	Z5	X6	Y6	Z6	X7	Y7	Z7	X8	Y8	Z8	X9	Y9	Z9	X10	Y10	Z10	X11	Y11	Z11	X12	Y12	Z12	X13	Y13	Z13	X14	Y14	Z14	X15	Y15	Z15	X16	Y16	Z16	X17	Y17	Z17	X18	Y18	Z18	X19	Y19	Z19	X20	Y20	Z20	X21	Y21	Z21	X22	Y22	Z22	X23	Y23	Z23	X24	Y24	Z24	X25	Y25	Z25	X26	Y26	Z26	X27	Y27	Z27	
373	6.322033898305085	0.29517963010613046	0.4696069770644824	0.8461523317638617	0.28106922684448515	0.5145253481746138	1.3404757574073483	0.26041187181696945	0.566815312053319	1.823495315409852	0.23121167349256516	0.306056833411448	1.7676461648388386	0.3030143504284798	0.3604426517181497	1.7901252695136776	0.2649158298874667	0.6572426758454308	1.8994707850342856	0.065302956325527	0.5054768192991175	0.8736007611426059	0.08035160917783112	0.5390958726199888	1.3530353426883166	0.09082152744223551	0.5417866952271441	1.8027663154235993	0.09995928355524315	0.3042409407408501	1.7573658706710127	0.058311647700373566	0.33659357174343296	1.7680118589902898	0.11771475522773803	0.6175929658104192	1.9008599819426402	0.16329666166232407	0.5082664259423426	0.22853429428631256	0.13303141516758005	0.5023773550835282	-0.009738001407846367	0.12644319350443978	0.3970032364061954	0.0889020017056759	0.35140443690623846	0.5343438930900466	0.3536831698080144	0.3875320000738627	0.4948436443529765	0.6346754683869338	0.41762997851043854	0.42855224194521907	0.8911734595623502	0.38136873192307114	0.3383493708733014	0.9945726395969247	0.39206257374294473	0.3467548507814265	1.020395073580654	0.40915956823911337	0.406262177452677	1.0421723895992598	0.0047589903803681895	0.5218245277044464	0.363140810074016	-0.04556010027901427	0.5342003171376143	0.6507956397701414	-0.028393343143121898	0.42616227003610135	0.8826592302663947	0.019763157617413117	0.4114111983512814	0.99418341086463	-0.013990420679021452	0.39026557894507513	1.0139027208299023	-0.03986486352470685	0.42174705495877635	1.0196984734630916
374	6.338983050847458	0.29570540303506415	0.46788493224354355	0.8452689750182882	0.2835266906037446	0.5102749237397507	1.3373664967752321	0.26122438279035043	0.5636634179740534	1.8230479011874254	0.23248865364048135	0.30089120910308925	1.7629462994184528	0.30312143969860117	0.3605195826488827	1.790104425387257	0.2654811881640759	0.6584288855722121	1.9005723936138543	0.06547967770444726	0.5052060748647682	0.8731459570673683	0.08239881749879258	0.5400172019451993	1.3533355662473623	0.09079621000565574	0.5417513342181581	1.8026696955459873	0.1000467963679404	0.3039001367891581	1.7551006699418772	0.05937456683896629	0.3328053425887155	1.766260882981316	0.11793515515416446	0.6178945574641008	1.902183445507633	0.16236682566897678	0.511767259442317	0.2288647246351543	0.12906177395498375	0.5036771138465989	-0.009558911398773667	0.12341892685930075	0.3931811810802166	0.08931974417877986	0.3515054381360942	0.5342319058520595	0.35395780955332073	0.3875465707846978	0.49475702839387814	0.6346189286614868	0.4175772545783474	0.4285853573372168	0.8897686789861033	0.3815170394578852	0.33831889843110097	0.9934478148190029	0.39204362215089994	0.3467766100096352	1.019964229925075	0.40868071279791274	0.40442933056107344	1.041729957124358	0.0033242886524582085	0.5221625557385298	0.3639915128413598	-0.04542133282200627	0.5342840087377824	0.6512202950814955	-0.027323074400174827	0.4302842409106755	0.883914783320294	0.020074773759472527	0.41155751987120565	0.994728454464737	-0.014029678430775062	0.3902893016043479	1.0142819262779457	-0.037812469562602355	0.42017852845063874	1.0192367643089169
375	6.3559322033898304	0.2959407074354277	0.46745567769654073	0.845573116393072	0.28628399330812926	0.5056806675057894	1.33330029020863	0.2624625647730516	0.560932718446876	1.8217757465689375	0.23340638333894104	0.2972768938203355	1.760361556019283	0.30320810741221293	0.36071022366793315	1.790226375028798	0.26596973212559544	0.6594967906195951	1.9039428717038729	0.06558664141470374	0.5050214661587902	0.872764920684979	0.08366121134759345	0.5405576247332897	1.3535000081564064	0.09076809659036424	0.5417313500246552	1.8027002407415413	0.09999867973584603	0.30424813285023067	1.7542915412181488	0.05950168127361283	0.33146586084765306	1.766970135472934	0.11808076114177764	0.6180744505407685	1.903009437429053	0.16208096703595962	0.5133262774037001	0.2299373494495697	0.1257805527205628	0.5046488718401313	-0.009443933987699172	0.12200208143025595	0.3917106140997415	0.0896690455081549	0.3515302953888242	0.5341810424339827	0.35397773856644627	0.387543994582656	0.4946664252616977	0.6345648763867303	0.41757199423268987	0.4286227086355432	0.8893657521366829	0.38203294446457536	0.33854666533457245	0.9927938955149186	0.39234183764550273	0.3455047643320011	1.0193144820440947	0.40899950148176883	0.4048519559503921	1.0424377716568205	0.0017627443485704317	0.5224948908395313	0.3640989715261075	-0.04541881516225214	0.5344314177748609	0.6499162727654983	-0.026482146141229415	0.4334639281756677	0.8848757149165746	0.02015325797489434	0.41049180413374553	0.9952201896498052	-0.013958825594151389	0.390384796183446	1.0153427168697091	-0.0362408156545265	0.42241862575810474	1.0197361463463832
376	6.372881355932203	0.29607232611719764	0.4672779493744373	0.8467475207409636	0.28752908118710574	0.5020781147613609	1.3305514507117435	0.26363483190441467	0.558579385473917	1.8195276964909428	0.23372812738881749	0.2958147856410438	1.7597023869015056	0.3031718969483162	0.36064913454399666	1.7902122937525138	0.2664399191679492	0.6604104669348196	1.9082322577224478	0.06560175540363629	0.5049515910674818	0.8732768925675403	0.0840320099702601	0.540729988881406	1.3535515955608315	0.09083410851148874	0.5418463398060063	1.8032562219474042	0.09988750381837974	0.30455118452968105	1.7542130481269498	0.059220677516283605	0.3316529014249758	1.768283052527336	0.11811346620582651	0.6181144457097831	1.9032112500529463	0.16213773809850698	0.5135139938792834	0.2309430548205858	0.12293009512448796	0.5071187850395222	-0.009365681569314785	0.12173135090040932	0.39182602045026405	0.08989566926450202	0.3514346642567566	0.534184796766003	0.35392274510847416	0.3875332623994096	0.4945649461519385	0.634500657558863	0.4176958587604005	0.42884372019556005	0.8894464892054632	0.38299769036834075	0.339115498670165	0.9927775193533628	0.39347525976593534	0.34231253053669847	1.0179378849706204	0.41066921489150326	0.40907243865562215	1.0431533058174973	0.000607850755147717	0.5225744856573127	0.36405494490746776	-0.04552650039256316	0.5345420623685826	0.6473234418874634	-0.026107833056432973	0.43489396305955674	0.8852662426705015	0.019576365017725184	0.40733637302198566	0.9953211669590578	-0.01380758535700311	0.3904578254994466	1.0168037087994186	-0.03540016492705519	0.42564752930442507	1.0206392687648673
377	6.389830508474576	0.29611045806336983	0.46701377544529066	0.8485243018357502	0.28660767001313264	0.5002077498701166	1.3301734401091556	0.26491211294697015	0.5565502743096081	1.816732629686197	0.2337103482599647	0.29572004373407557	1.7599330775366058	0.30274996434574675	0.3594706707876053	1.7894447442574692	0.2667178367892486	0.6610068626053918	1.910569555381243	0.06562334204653052	0.5049539502294141	0.8749035262830457	0.08362230424995379	0.5406782718207336	1.353552397503354	0.09107244628710816	0.5422083687338485	1.8046670444744177	0.09981885659554399	0.30466227157501136	1.7544075483493031	0.059082185887938746	0.33215900269541143	1.7685939865328786	0.11808409606511096	0.6181867305374006	1.9031641039552438	0.16222316377057297	0.5132825920061546	0.23139152764603493	0.1203795018462334	0.5107808240002988	-0.009252714647420118	0.12155939167729189	0.3923191232348583	0.09033641241244726	0.3512788831867495	0.5342061893630349	0.3539177693293649	0.38752245649458616	0.4945229355465571	0.6344690334897055	0.41823802840969865	0.42940416911321044	0.889681651066994	0.3842262823439233	0.33958216575157024	0.9924270340741399	0.39553913493675336	0.3382602431341736	1.016168586593279	0.41292989625056614	0.41482746003598175	1.0434301114288358	0.00015447600190118886	0.5223789377697573	0.3647394452750478	-0.04562538717512633	0.5346129687233625	0.6449948279495736	-0.026046405112169962	0.43533314546331175	0.8853076024042619	0.018602165102839362	0.40296471449574933	0.9950949515339833	-0.013575358578307294	0.39041101255818966	1.0179518219351784	-0.0349352132031155	0.42614489571774583	1.0211537806090192
378	6.406779661016949	0.2959434371593997	0.467088474238654	0.8504943470297135	0.28419561192678966	0.49916151603451964	1.330841809059501	0.2662900842219905	0.5553261376745074	1.8145360986359822	0.23362245402303783	0.2960725081653341	1.7602281085843077	0.30171541620949943	0.3564921585449911	1.7874789452710271	0.2666467858812988	0.6612214826250895	1.9099010313446747	0.06569358955174637	0.5050155465937303	0.8766664669818094	0.08250682859641309	0.5404102492876325	1.3534845026751672	0.09141800581139797	0.542730723716764	1.8065434249052337	0.09980869074155067	0.30466617833214155	1.754620207588057	0.05926395621672503	0.33245910832516423	1.7675843808646499	0.11806425965034578	0.6183529384708112	1.9032054850162465	0.16228549312241436	0.5131158626979362	0.2314249220063483	0.1186569341133398	0.5137552909945501	-0.009090837413603356	0.12078443284026714	0.392422089923758	0.09121411028237958	0.3511780324899424	0.5341833318734592	0.3539779042277677	0.38751914865218706	0.49455620119568905	0.6344932407327034	0.419550221549091	0.4299959342944265	0.8900173173686697	0.3854600233486809	0.3388789029917451	0.990221233614613	0.397786741292753	0.3354178176870567	1.0148573528352753	0.41475866652033255	0.41841283751411296	1.0431018685670257	0.00017116895953230916	0.5221066892581008	0.3658862976945219	-0.045747543956778054	0.5346094058613566	0.6439518799685852	-0.026091152377679824	0.4355221370113581	0.8852748577547159	0.01820622628042045	0.39957553969776693	0.9951846795395156	-0.01302395681107713	0.39037318605167254	1.0184822826363604	-0.03428178725507767	0.42334626304944406	1.02080273578993
